<?xml version="1.0" encoding="UTF-8" standalone="no"?>
<svg
   xmlns:dc="http://purl.org/dc/elements/1.1/"
   xmlns:cc="http://creativecommons.org/ns#"
   xmlns:rdf="http://www.w3.org/1999/02/22-rdf-syntax-ns#"
   xmlns:svg="http://www.w3.org/2000/svg"
   xmlns="http://www.w3.org/2000/svg"
   xmlns:sodipodi="http://sodipodi.sourceforge.net/DTD/sodipodi-0.dtd"
   xmlns:inkscape="http://www.inkscape.org/namespaces/inkscape"
   version="1.1"
   id="Layer_1"
   x="0px"
   y="0px"
   width="113.385"
   height="113.385"
   viewBox="70.866 70.866 113.38501 113.38501"
   enable-background="new 70.866 70.866 141.732 141.732"
   xml:space="preserve"
   sodipodi:docname="download.svg"
   inkscape:version="1.0.2 (e86c870879, 2021-01-15)"><metadata
   id="metadata867"><rdf:RDF><cc:Work
       rdf:about=""><dc:format>image/svg+xml</dc:format><dc:type
         rdf:resource="http://purl.org/dc/dcmitype/StillImage" /><dc:title></dc:title></cc:Work></rdf:RDF></metadata><defs
   id="defs865" /><sodipodi:namedview
   pagecolor="#ffffff"
   bordercolor="#666666"
   borderopacity="1"
   objecttolerance="10"
   gridtolerance="10"
   guidetolerance="10"
   inkscape:pageopacity="0"
   inkscape:pageshadow="2"
   inkscape:window-width="1600"
   inkscape:window-height="840"
   id="namedview863"
   showgrid="false"
   inkscape:zoom="4.6002316"
   inkscape:cx="70.431237"
   inkscape:cy="70.865997"
   inkscape:window-x="0"
   inkscape:window-y="26"
   inkscape:window-maximized="1"
   inkscape:current-layer="Layer_1" />
<path
   fill="#dd4814"
   d="m 127.559,70.866 c -31.262,0 -56.693,25.432 -56.693,56.692 0,31.262 25.432,56.695 56.693,56.695 31.259,0 56.692,-25.433 56.692,-56.695 0,-31.26 -25.433,-56.692 -56.692,-56.692 z m 19.855,68.295 -17.345,17.346 c -1.384,1.383 -3.625,1.383 -5.01,0 l -17.172,-17.174 c -0.75,-0.65 -1.223,-1.607 -1.223,-2.678 0,-1.956 1.586,-3.544 3.544,-3.544 h 0.013 10.25 v -10e-4 -28.446 c 0,-3.914 3.174,-7.086 7.086,-7.086 3.914,0 7.087,3.172 7.087,7.086 v 28.447 h 10.264 c 1.432,0 2.725,0.862 3.271,2.188 0.551,1.325 0.247,2.85 -0.765,3.862 z"
   id="path860" />
</svg>
