<?xml version="1.0" encoding="UTF-8" standalone="no"?>
<svg
   xmlns:dc="http://purl.org/dc/elements/1.1/"
   xmlns:cc="http://creativecommons.org/ns#"
   xmlns:rdf="http://www.w3.org/1999/02/22-rdf-syntax-ns#"
   xmlns:svg="http://www.w3.org/2000/svg"
   xmlns="http://www.w3.org/2000/svg"
   id="Layer_1"
   xml:space="preserve"
   viewBox="0 0 775.29999 600"
   version="1.1"
   y="0px"
   x="0px"
   width="775.29999"
   height="600"><metadata
   id="metadata39"><rdf:RDF><cc:Work
       rdf:about=""><dc:format>image/svg+xml</dc:format><dc:type
         rdf:resource="http://purl.org/dc/dcmitype/StillImage" /><dc:title></dc:title></cc:Work></rdf:RDF></metadata><defs
   id="defs37" />
<style
   type="text/css"
   id="style2">
	.st0{fill:#E95420;}
	.st1{fill:url(#SVGID_1_);}
	.st2{fill:#999999;}
	.st3{fill:url(#SVGID_2_);}
</style>
<path
   class="st0"
   d="m 490.8,174.3 -31.5,-1.6 -24.3,20.2 -1.4,10.8 -2.9,28.8 15,-13.7 h 30.7 l 27.1,-27.4 15.4,-15.9 z m -31.6,38.8 c 0,0 -4.4,-6.8 -4.4,-16.9 0,-6.1 1.9,-12 5.4,-16.9 3.2,5.2 5,11.1 5.1,17.2 -0.1,6.1 -2.2,11.9 -6.1,16.6 z m -154.1,-22 c 0,-7.4 1.9,-10.7 3.8,-13.4 3.7,5.6 3.7,16.1 3.7,16.1 l 7.6,-13.9 -16.9,-18.7 -9.9,30 6.9,26.4 7.5,-14.2 c -0.3,-1.4 -2.7,-7.6 -2.7,-12.3 z m -101.7,45.4 c -0.1,-0.4 0,-0.7 0.2,-1 0.2,-0.3 0.5,-0.5 0.9,-0.6 0.8,-0.1 1.5,0.4 1.6,1.1 0.1,0.7 -0.4,1.5 -1.1,1.6 h -0.2 c -0.7,0 -1.3,-0.5 -1.4,-1.1 z m 10.9,-1.9 c -0.1,-0.7 0.4,-1.5 1.1,-1.6 0.8,-0.1 1.5,0.4 1.6,1.1 0.1,0.7 -0.4,1.5 -1.1,1.6 h -0.2 c -0.7,0.1 -1.3,-0.5 -1.4,-1.1 z m 10.9,-1.9 c -0.1,-0.7 0.4,-1.5 1.1,-1.6 0.8,-0.1 1.5,0.4 1.6,1.1 0.1,0.7 -0.4,1.5 -1.1,1.6 h -0.2 c -0.7,0.1 -1.2,-0.4 -1.4,-1.1 z m 11,-1.9 c -0.1,-0.7 0.4,-1.5 1.1,-1.6 0.8,-0.1 1.5,0.4 1.6,1.1 0.1,0.7 -0.4,1.5 -1.1,1.6 h -0.2 c -0.7,0.1 -1.3,-0.4 -1.4,-1.1 z m 11,-1.9 c -0.1,-0.7 0.4,-1.5 1.1,-1.6 0.8,-0.1 1.5,0.4 1.6,1.1 0.1,0.7 -0.4,1.5 -1.1,1.6 h -0.2 c -0.8,0.1 -1.3,-0.4 -1.4,-1.1 z m 10.9,-1.9 c -0.1,-0.7 0.4,-1.5 1.1,-1.6 0.8,-0.1 1.5,0.4 1.6,1.1 0.1,0.7 -0.4,1.5 -1.1,1.6 h -0.2 c -0.7,0.1 -1.3,-0.4 -1.4,-1.1 z m 10.9,-1.8 c -0.1,-0.7 0.4,-1.5 1.1,-1.6 0.7,-0.1 1.4,0.4 1.6,1.1 0.1,0.4 0,0.7 -0.2,1 -0.2,0.3 -0.5,0.5 -0.9,0.6 h -0.2 c -0.7,0 -1.3,-0.5 -1.4,-1.1 z m 11,-1.9 c -0.1,-0.7 0.4,-1.5 1.1,-1.6 0.8,-0.1 1.5,0.4 1.6,1.1 0.1,0.7 -0.4,1.5 -1.1,1.6 h -0.2 c -0.7,0 -1.3,-0.5 -1.4,-1.1 z m 10.9,-1.9 c -0.1,-0.7 0.4,-1.5 1.1,-1.6 0.4,-0.1 0.7,0 1,0.2 0.3,0.2 0.5,0.5 0.6,0.9 0.1,0.7 -0.4,1.5 -1.1,1.6 h -0.2 c -0.7,0.1 -1.2,-0.4 -1.4,-1.1 z m 11,-1.9 c -0.1,-0.7 0.4,-1.5 1.1,-1.6 0.4,-0.1 0.7,0 1,0.2 0.3,0.2 0.5,0.5 0.6,0.9 0.1,0.7 -0.4,1.5 -1.1,1.6 h -0.2 c -0.7,0.1 -1.3,-0.4 -1.4,-1.1 z m 10.9,-1.9 c -0.1,-0.7 0.4,-1.5 1.1,-1.6 0.4,-0.1 0.7,0 1,0.2 0.3,0.2 0.5,0.5 0.6,0.9 0.1,0.7 -0.4,1.5 -1.1,1.6 h -0.2 c -0.7,0.1 -1.3,-0.4 -1.4,-1.1 z m 11,-1.9 c -0.1,-0.7 0.4,-1.5 1.1,-1.6 0.4,-0.1 0.7,0 1,0.2 0.3,0.2 0.5,0.5 0.6,0.9 0.1,0.7 -0.4,1.4 -1.1,1.6 h -0.2 c -0.7,0.1 -1.3,-0.4 -1.4,-1.1 z m 10.9,-1.8 c -0.1,-0.7 0.4,-1.5 1.1,-1.6 0.4,-0.1 0.7,0 1,0.2 0.3,0.2 0.5,0.5 0.6,0.9 0.1,0.7 -0.4,1.5 -1.1,1.6 h -0.2 c -0.7,0 -1.3,-0.5 -1.4,-1.1 z m 11,-2 c -0.1,-0.7 0.4,-1.5 1.1,-1.6 0.8,-0.1 1.5,0.4 1.6,1.1 0.1,0.4 0,0.7 -0.2,1 -0.2,0.3 -0.5,0.5 -0.9,0.6 h -0.2 c -0.8,0.1 -1.3,-0.4 -1.4,-1.1 z m 10.9,-1.8 c -0.1,-0.7 0.4,-1.5 1.1,-1.6 0.8,-0.1 1.5,0.4 1.6,1.1 0.1,0.7 -0.4,1.5 -1.1,1.6 H 358 c -0.7,0 -1.3,-0.5 -1.4,-1.1 z m 10.9,-1.9 c -0.1,-0.7 0.4,-1.5 1.1,-1.6 0.8,-0.1 1.5,0.4 1.6,1.1 0.1,0.7 -0.4,1.5 -1.1,1.6 h -0.2 c -0.7,0 -1.2,-0.5 -1.4,-1.1 z m 11,-1.9 c -0.1,-0.4 0,-0.7 0.2,-1 0.2,-0.3 0.5,-0.5 0.9,-0.6 0.7,-0.1 1.4,0.4 1.6,1.1 0.1,0.7 -0.4,1.5 -1.1,1.6 h -0.2 c -0.7,0 -1.3,-0.4 -1.4,-1.1 z m 10.9,-1.9 c -0.1,-0.7 0.4,-1.5 1.1,-1.6 0.8,-0.1 1.5,0.4 1.6,1.1 0.1,0.7 -0.4,1.5 -1.1,1.6 h -0.2 c -0.7,0.1 -1.3,-0.4 -1.4,-1.1 z m 11,-1.9 c -0.1,-0.7 0.4,-1.5 1.1,-1.6 0.8,-0.1 1.5,0.4 1.6,1.1 0.1,0.7 -0.4,1.5 -1.1,1.6 h -0.2 c -0.7,0.1 -1.3,-0.4 -1.4,-1.1 z m 10.9,-1.8 c -0.1,-0.7 0.4,-1.5 1.1,-1.6 0.8,-0.1 1.5,0.4 1.6,1.1 0.1,0.7 -0.4,1.5 -1.1,1.6 h -0.2 c -0.7,0 -1.2,-0.5 -1.4,-1.1 z m 11,-1.9 c -0.1,-0.7 0.4,-1.5 1.1,-1.6 0.8,-0.1 1.5,0.4 1.6,1.1 0.1,0.7 -0.4,1.5 -1.1,1.6 h -0.2 c -0.7,0 -1.3,-0.5 -1.4,-1.1 z m -307.4,23.6 c -0.2,-0.7 0.3,-1.5 1.1,-1.6 0.7,-0.1 1.4,0.3 1.6,1.1 0.2,0.7 -0.3,1.5 -1.1,1.6 h -0.2 c -0.7,0 -1.3,-0.5 -1.4,-1.1 z m 10.9,-2.2 c -0.1,-0.8 0.4,-1.5 1.1,-1.6 0.4,-0.1 0.7,0 1,0.2 0.3,0.2 0.5,0.5 0.6,0.9 0.2,0.7 -0.3,1.5 -1.1,1.6 h -0.2 c -0.7,0 -1.3,-0.4 -1.4,-1.1 z m 10.9,-2.2 c -0.1,-0.7 0.3,-1.4 1.1,-1.6 0.7,-0.2 1.5,0.3 1.6,1.1 0.1,0.7 -0.4,1.5 -1.1,1.6 h -0.2 c -0.7,0 -1.3,-0.4 -1.4,-1.1 z m 10.9,-2.2 c -0.1,-0.4 0,-0.7 0.2,-1 0.2,-0.3 0.5,-0.5 0.9,-0.6 0.4,-0.1 0.7,0 1,0.2 0.3,0.2 0.5,0.5 0.6,0.9 0.1,0.4 0,0.7 -0.2,1 -0.2,0.3 -0.5,0.5 -0.9,0.6 H 149 c -0.7,0.1 -1.3,-0.4 -1.4,-1.1 z m 10.9,-2.1 c -0.2,-0.7 0.3,-1.5 1.1,-1.6 0.7,-0.1 1.4,0.4 1.6,1.1 0.1,0.4 0,0.7 -0.2,1 -0.2,0.3 -0.5,0.5 -0.9,0.6 h -0.2 c -0.7,0 -1.3,-0.5 -1.4,-1.1 z m 10.9,-2.2 c -0.1,-0.8 0.4,-1.5 1.1,-1.6 0.7,-0.1 1.4,0.4 1.6,1.1 0.1,0.4 0,0.7 -0.2,1 -0.2,0.3 -0.5,0.5 -0.9,0.6 h -0.2 c -0.7,0 -1.3,-0.4 -1.4,-1.1 z m 10.9,-2.2 c -0.1,-0.4 0,-0.7 0.2,-1 0.2,-0.3 0.5,-0.5 0.9,-0.6 0.7,-0.1 1.5,0.3 1.6,1.1 0.1,0.8 -0.4,1.5 -1.1,1.6 h -0.2 c -0.8,0 -1.3,-0.4 -1.4,-1.1 z m 10.9,-2.1 c -0.1,-0.4 0,-0.7 0.2,-1 0.2,-0.3 0.5,-0.5 0.9,-0.6 0.4,-0.1 0.7,0 1,0.2 0.3,0.2 0.5,0.5 0.6,0.9 0.2,0.7 -0.3,1.5 -1.1,1.6 h -0.2 c -0.7,0 -1.3,-0.5 -1.4,-1.1 z m 10.9,-2.2 c -0.1,-0.7 0.4,-1.5 1.1,-1.6 0.4,-0.1 0.7,0 1,0.2 0.3,0.2 0.5,0.5 0.6,0.9 0.1,0.4 0,0.7 -0.2,1 -0.2,0.3 -0.5,0.5 -0.9,0.6 h -0.2 c -0.7,0 -1.3,-0.4 -1.4,-1.1 z m 10.8,-2.2 c -0.1,-0.4 0,-0.7 0.2,-1 0.2,-0.3 0.5,-0.5 0.9,-0.6 0.7,-0.2 1.5,0.3 1.6,1.1 0.1,0.7 -0.3,1.4 -1.1,1.6 h -0.2 c -0.6,0 -1.2,-0.4 -1.4,-1.1 z m 11,-2.1 c -0.2,-0.7 0.3,-1.5 1.1,-1.6 0.8,-0.1 1.5,0.4 1.6,1.1 0.1,0.7 -0.4,1.5 -1.1,1.6 h -0.2 c -0.8,0 -1.3,-0.5 -1.4,-1.1 z m 10.8,-2.2 c -0.2,-0.7 0.3,-1.5 1.1,-1.6 0.7,-0.1 1.5,0.4 1.6,1.1 0.1,0.4 0,0.7 -0.2,1 -0.2,0.3 -0.5,0.5 -0.9,0.6 h -0.2 c -0.7,0 -1.2,-0.5 -1.4,-1.1 z m 10.9,-2.2 c -0.1,-0.7 0.3,-1.4 1.1,-1.6 0.7,-0.2 1.5,0.3 1.6,1.1 0.2,0.7 -0.3,1.5 -1.1,1.6 H 247 c -0.7,0 -1.3,-0.4 -1.4,-1.1 z m 10.9,-2.1 c -0.1,-0.4 0,-0.7 0.2,-1 0.2,-0.3 0.5,-0.5 0.9,-0.6 0.7,-0.2 1.5,0.3 1.6,1.1 0.1,0.8 -0.4,1.5 -1.1,1.6 h -0.2 c -0.7,0 -1.2,-0.5 -1.4,-1.1 z m 10.9,-2.2 c -0.1,-0.4 0,-0.7 0.2,-1 0.2,-0.3 0.5,-0.5 0.9,-0.6 0.4,-0.1 0.7,0 1,0.2 0.3,0.2 0.5,0.5 0.6,0.9 0.2,0.7 -0.3,1.5 -1.1,1.6 h -0.2 c -0.7,0 -1.3,-0.5 -1.4,-1.1 z"
   id="path4"
   style="fill:#ffffff" />
<linearGradient
   id="SVGID_1_"
   y2="441.37"
   gradientUnits="userSpaceOnUse"
   x2="621.16998"
   gradientTransform="matrix(775.51,0,0,599.59,-480970,-264460)"
   y1="441.72"
   x1="620.39001">
	<stop
   stop-color="#2C001E"
   offset="0"
   id="stop6" />
	<stop
   stop-color="#772953"
   offset=".55"
   id="stop8" />
	<stop
   stop-color="#E95420"
   offset="1"
   id="stop10" />
</linearGradient>
<path
   class="st1"
   d="m 670.2,248.4 61.4,-10.2 0.8,-0.1 -0.7,-3.8 -65.5,10.9 -22.9,-19.3 37.4,-91.2 2.1,-38.6 L 706.3,22 653.4,8.2 608.2,31.2 561.9,75.7 534.8,62.4 455.6,52.5 387.2,70 326.3,0.2 295.7,21 l -1.6,66.6 9.7,22.9 -32.2,99.6 7,39.8 -17.1,17.6 0.1,18 3.6,5.7 -261.8,-98.8 -0.8,-0.3 -1.3,3.6 267.4,100.9 1.1,1.8 -3.8,7.6 -200.1,-22.9 -0.8,-0.1 -0.4,3.8 199.6,22.8 -4.6,9.3 -137.2,15.3 0.4,3.8 134.8,-15 -3.5,7.1 0.7,2.2 -74.9,31.3 1.5,3.6 74.6,-31 4.3,13 -59.7,43.3 2.2,3.1 58.7,-42.6 5.6,16.8 11.8,3 28.4,34.8 57.9,7.4 11.2,-6.5 0.3,29.3 h 3.8 l -0.3,-31.5 21.5,-12.6 h 0.1 l 2.4,21.3 0.1,0.9 4.1,-0.7 -2.5,-20.7 35.5,7.8 19.6,74.2 5.1,123.1 70.3,-14.4 133,-86.6 0.3,-0.2 75.7,-91 31.1,-72.9 -88.4,-71 z m -224.6,149.9 -40.2,-8.8 -0.1,-0.7 38.7,-12.5 29,29.9 2.7,-2.7 -27.6,-28.5 75.3,-24.3 38,14.2 -96.1,108.5 z m -135.6,4.6 -27.1,-33.1 12.1,2.3 0.7,0.1 3.6,-8 34.2,4.2 5.5,6.4 0.2,0.3 36.9,-4.1 0.3,31.9 -12.1,7.1 z m -39,-37.2 -11.6,-35 8.6,-17.5 12.5,20.9 0.3,-0.2 v 0.1 l 17.3,4 10.4,2.4 -13.7,30.3 -16.8,-3.2 -0.8,-0.2 z m 24.5,-213.5 24.1,28.1 -34.2,63.4 -2.4,3.1 -6.4,-36.3 z m 44,-65.4 -13.9,-27.4 1.3,-51.1 56.4,64.7 z m -30.5,23.8 30.2,-22.1 45.1,-14.2 0.4,0.4 -54,45 -0.2,0.2 -10.3,58.9 -24.1,-28.1 z m 255.2,251.2 -34.8,-13 23.6,-7.6 32.6,-25.6 L 565,361 Z m -223.5,-69.1 3.4,6 20.3,-9.5 10.4,-21.5 52.3,-9 -26.8,44.4 -22.7,-0.7 -37.6,29.5 -16.4,-31.4 z M 436,193 l 23.5,-19.5 58.9,2.2 h 0.3 l 34.5,-34.2 h 0.1 l 33.9,-64.3 5.4,31.7 4.5,26 4.3,26.6 -8.1,95.7 -141,23.5 -23.1,-23.3 z m -15.6,115.2 -1.3,3.6 19.6,7.3 -7.5,19.3 -29.6,-34.7 27.1,-44.9 22,22.2 -26.9,4.5 -0.8,0.1 0.7,3.8 28.5,-4.7 -5.9,15.3 -23.5,-2 -0.4,3.8 22.5,1.9 -4.6,11.8 z M 582.9,311.5 460.5,283.4 624.3,256 587.6,311.9 Z M 456.7,284 l 116,26.7 -125.1,-10.5 6.1,-15.7 z m -145.7,56.4 23.1,-2 0.2,-0.2 6.4,-4.9 37.5,-29.4 22.2,0.7 29.9,35.1 -8.8,8 -13.3,-13.7 -2.7,2.7 13.2,13.6 -16.2,14.7 -2.5,-20.6 -3.7,0.7 2.5,21.9 -19,2.1 -0.2,-21.3 h -3.8 l 0.2,21.7 -36.3,4 z m 91.8,26.3 17,-15.5 23.1,23.9 -37.7,12.2 z m 19.8,-18 9.5,-8.6 7.9,-20.4 81.2,30.3 -74.3,24 z m 129.8,-8.8 -25.2,8.1 -85.7,-32 4.7,-12.1 137.3,11.5 z m 135.1,-15.8 0.5,-3.8 -98.7,-8.3 37,-56.3 37.5,-6.3 21.5,18.1 2.3,1.8 54.6,134.3 -0.4,1 -74,89 -78,-177.8 z m -59,-72.7 10,-23.2 21.3,18 z m -1.7,0.3 -31.9,5.3 8,-95 71.8,-25.8 -35.9,87.4 z m -23.1,-209.3 -16.6,32 v 0.2 L 554.2,137 563,81.6 Z m -70.3,24.8 28.2,13.9 -9.5,59.5 -33.8,33.6 -58.4,-2.1 L 440,121.5 531.8,67 Z m -94.5,55.3 19.6,50 -23.6,19.6 h -0.1 v 0.1 l -0.1,0.1 0.1,0.1 -6.7,64.6 -52.9,9.1 -0.7,-14.2 15.4,-73.9 z m -65.9,129.8 0.7,14.6 -10.3,21.2 -18.7,8.8 -9,-15.8 -19.3,8.8 22.5,43 -5.4,4.2 -23.4,2.1 -7.7,-72 57.5,-25.2 z m -71.2,13.5 -17.9,-14.3 -0.5,-2.8 3.1,-4.1 21.8,-14.2 h 37.3 l 13.1,10.5 z m -18.9,-13.3 18.1,14.5 7.7,71.9 -9.8,-2.3 -16.3,-3.8 12.5,-42.7 0.2,-0.6 -8,-4.4 -9.7,-5.3 -0.8,-0.4 -4.2,14.3 -6.1,-9.7 -0.1,-14.6 z m -9.1,43.1 1.3,-4.8 15,11.3 -8.6,29.5 -12.7,-20.1 6.6,-13.4 z m 106.1,75 19.1,-2.1 2.3,20.2 -0.3,-0.1 -20.8,12.1 z m 185.8,-8.3 0.4,-0.4 20,-44.1 -9.4,48.7 z m 177.2,39.6 -53.1,-130.6 80.9,64.9 z m -287,-344.4 73.6,9.2 -90.8,53.8 -50.1,56.8 -0.1,0.1 -15.3,73.2 -27.1,-21.8 H 307.9 L 288,241.8 321.4,180 331.9,120.5 386,75.3 Z m 78.9,523.3 -63.8,13 -4.9,-117.5 -0.3,-1.1 97.1,-109.7 13,4.9 -40.5,210.1 z m 42.5,-210 9.9,3.7 0.8,0.3 1.3,-3.6 -11.3,-4.2 9.9,-51.2 78.7,179.1 -129.6,84.4 z"
   id="path13"
   style="fill:#ffffff" />

	
	
		<linearGradient
   id="SVGID_2_"
   y2="535"
   gradientUnits="userSpaceOnUse"
   x2="1445.6"
   gradientTransform="matrix(1,0,0,-1,0,602)"
   y1="69"
   x1="1445.6">
		<stop
   stop-color="#E95420"
   offset="0"
   id="stop21" />
		<stop
   stop-color="#772953"
   offset=".32"
   id="stop23" />
		<stop
   stop-color="#6A224A"
   offset=".48"
   id="stop25" />
		<stop
   stop-color="#491033"
   offset=".78"
   id="stop27" />
		<stop
   stop-color="#2C001E"
   offset="1"
   id="stop29" />
	</linearGradient>
	
</svg>
