<?xml version="1.0" encoding="UTF-8" standalone="no"?>
<svg
   xmlns:dc="http://purl.org/dc/elements/1.1/"
   xmlns:cc="http://creativecommons.org/ns#"
   xmlns:rdf="http://www.w3.org/1999/02/22-rdf-syntax-ns#"
   xmlns:svg="http://www.w3.org/2000/svg"
   xmlns="http://www.w3.org/2000/svg"
   xmlns:sodipodi="http://sodipodi.sourceforge.net/DTD/sodipodi-0.dtd"
   xmlns:inkscape="http://www.inkscape.org/namespaces/inkscape"
   version="1.1"
   id="Layer_1"
   x="0px"
   y="0px"
   width="105.785"
   height="113.386"
   viewBox="70.866 70.866 105.785 113.38601"
   enable-background="new 70.866 70.866 141.732 141.732"
   xml:space="preserve"
   sodipodi:docname="forum.svg"
   inkscape:version="1.0.2 (e86c870879, 2021-01-15)"><metadata
   id="metadata947"><rdf:RDF><cc:Work
       rdf:about=""><dc:format>image/svg+xml</dc:format><dc:type
         rdf:resource="http://purl.org/dc/dcmitype/StillImage" /><dc:title></dc:title></cc:Work></rdf:RDF></metadata><defs
   id="defs945" /><sodipodi:namedview
   pagecolor="#ffffff"
   bordercolor="#666666"
   borderopacity="1"
   objecttolerance="10"
   gridtolerance="10"
   guidetolerance="10"
   inkscape:pageopacity="0"
   inkscape:pageshadow="2"
   inkscape:window-width="1600"
   inkscape:window-height="840"
   id="namedview943"
   showgrid="false"
   inkscape:zoom="4.6002316"
   inkscape:cx="70.865997"
   inkscape:cy="55.320166"
   inkscape:window-x="0"
   inkscape:window-y="26"
   inkscape:window-maximized="1"
   inkscape:current-layer="Layer_1" />
<g
   id="g940"
   transform="translate(-21.775,-14.174)">
	<path
   fill="#dd4814"
   d="m 131.086,124.034 c 0,1.956 -1.586,3.544 -3.545,3.544 -1.955,0 -3.541,-1.588 -3.541,-3.544 0,-1.958 1.586,-3.543 3.541,-3.543 1.959,0 3.545,1.586 3.545,3.543"
   id="path934" />
	<path
   fill="#dd4814"
   d="m 141.729,85.04 c -6.713,0 -13.158,1.176 -19.142,3.33 22.574,7.478 38.907,28.784 38.907,53.835 0,0.133 -0.005,0.268 -0.012,0.402 -0.201,3.734 -3.295,6.699 -7.076,6.699 h -17.719 v 13.758 h -2.059 c -1.958,0 -3.544,1.586 -3.544,3.545 0,1.955 1.586,3.543 3.544,3.543 h 2.059 v 15.009 c 0,2.526 -1.347,4.866 -3.537,6.134 -2.943,1.703 -6.031,3.125 -9.216,4.266 5.602,1.855 11.585,2.865 17.795,2.865 31.263,0 56.697,-25.432 56.697,-56.692 0,-31.262 -25.434,-56.694 -56.697,-56.694 z m 7.112,85.101 c -1.96,0 -3.542,-1.586 -3.542,-3.543 0,-1.957 1.582,-3.543 3.542,-3.543 1.955,0 3.543,1.586 3.543,3.543 0,1.957 -1.588,3.543 -3.543,3.543 z m 14.154,0 c -1.958,0 -3.542,-1.586 -3.542,-3.543 0,-1.957 1.584,-3.543 3.542,-3.543 1.958,0 3.544,1.586 3.544,3.543 0,1.957 -1.586,3.543 -3.544,3.543 z m 14.256,0 c -1.957,0 -3.542,-1.586 -3.542,-3.543 0,-1.957 1.585,-3.543 3.542,-3.543 1.958,0 3.544,1.586 3.544,3.543 0,1.957 -1.586,3.543 -3.544,3.543 z"
   id="path936" />
	<path
   fill="#dd4814"
   d="m 127.551,113.4 c 5.862,0 10.63,4.769 10.63,10.629 0,5.86 -4.768,10.629 -10.63,10.629 -5.86,0 -10.63,-4.768 -10.63,-10.629 0,-5.861 4.77,-10.629 10.63,-10.629 m -17.717,10.63 c 0,9.768 7.948,17.715 17.717,17.715 9.769,0 17.719,-7.947 17.719,-17.715 0,-9.77 -7.948,-17.717 -17.715,-17.717 H 97.501 c -1.792,2.231 -3.418,4.6 -4.86,7.087 h 20.746 c -2.228,2.962 -3.553,6.644 -3.553,10.63"
   id="path938" />
</g>
</svg>
